<mxfile host="app.diagrams.net" modified="2023-10-05T09:22:22.096Z" agent="Mozilla/5.0 (Macintosh; Intel Mac OS X 10.15; rv:109.0) Gecko/20100101 Firefox/118.0" version="22.0.2" etag="MJeYfboHUsjcuK5xMu9-" type="github">
  <diagram name="第 1 页" id="TuBOP4SOUBkxJFCFS6-D">
    <mxGraphModel>
      <root>
        <mxCell id="0" />
        <mxCell id="1" parent="0" />
      </root>
    </mxGraphModel>
  </diagram>
</mxfile>
